# xmcd
#
# Track frame offsets: 
#        150
#        20967
#        39221
#        52849
#        72242
#        88695
#        108986
#        123168
#        127117
#        143330
#
# Disc length: 2114 seconds
#
# Revision: 0
# Processed by: cddbd v1.5.2PL0 Copyright (c) Steve Scherf et al.
# Submitted via: ExactAudioCopy v0.99pb5
#
DISCID=8008400a
DTITLE=Band of Horses - Cease To Begin
DYEAR=2008
DGENRE=Blues
TTITLE0=Is There A Ghost
TTITLE1=Ode to LRC
TTITLE2=No One's Gonna Love
TTITLE3=Detlef Schrempf
TTITLE4=The General Specific
TTITLE5=Lamb On The Lamb
TTITLE6=Islands On The Coast
TTITLE7=Marry Song
TTITLE8=Cigarettes, Wedding Bands
TTITLE9=Window Blues
EXTD=
EXTT0=
EXTT1=
EXTT2=
EXTT3=
EXTT4=
EXTT5=
EXTT6=
EXTT7=
EXTT8=
EXTT9=
PLAYORDER=
